<svg width="357" height="600" viewBox="0 0 357 600" fill="none" xmlns="http://www.w3.org/2000/svg">
<rect width="357" height="600" rx="10" fill="black"/>
<mask id="mask0_930_1082" style="mask-type:alpha" maskUnits="userSpaceOnUse" x="0" y="0" width="357" height="600">
<rect width="357" height="600" rx="10" fill="black"/>
</mask>
<g mask="url(#mask0_930_1082)">
<path d="M96.0692 197.139L100.946 210.62L42.5686 231.739L36.7854 224.03C39.1191 219.193 40.4754 214.665 40.8542 210.444C41.204 206.143 40.3919 201.265 38.4179 195.808C38.2147 195.246 37.8006 194.352 37.1756 193.127L23.815 197.96L19.6348 186.405L29.6252 182.791C26.0463 177.915 23.4586 173.27 21.862 168.857C19.888 163.4 19.3533 158.285 20.258 153.511C21.2138 148.628 23.4409 144.374 26.939 140.749C30.4372 137.124 34.9547 134.31 40.4915 132.307C49.3986 129.085 57.0791 129.12 63.5331 132.411C70.0382 135.593 74.8046 140.992 77.8321 148.609L62.3049 154.226C60.8313 150.403 58.7396 147.757 56.03 146.287C53.2913 144.737 49.8758 144.702 45.7833 146.183C42.0119 147.547 39.4091 149.759 37.9751 152.819C36.6213 155.849 36.7863 159.692 38.47 164.346C39.2248 166.432 40.1801 168.446 41.3361 170.387C42.5433 172.219 44.0962 174.38 45.9949 176.869L68.6237 168.683L72.8039 180.238L53.1843 187.335C53.8092 188.561 54.2378 189.495 54.4701 190.137C55.7183 193.587 56.2845 197.285 56.1686 201.229C56.1039 205.063 55.2009 208.838 53.4596 212.554L96.0692 197.139Z" fill="#FFF75E" fill-opacity="0.25"/>
<path d="M311.763 221.633L304.67 234.091L250.721 203.376L252.833 193.974C258.028 192.611 262.354 190.704 265.811 188.254C269.311 185.729 272.496 181.945 275.367 176.903C275.662 176.384 276.074 175.489 276.601 174.218L264.254 167.188L270.334 156.509L279.566 161.766C280.954 155.879 282.809 150.896 285.131 146.817C288.002 141.775 291.547 138.049 295.767 135.639C300.102 133.198 304.784 132.132 309.812 132.442C314.84 132.752 319.913 134.363 325.029 137.276C333.261 141.963 338.218 147.829 339.902 154.876C341.702 161.89 340.686 169.02 336.855 176.266L322.506 168.096C324.458 164.495 325.115 161.186 324.475 158.17C323.877 155.081 321.688 152.459 317.906 150.306C314.42 148.322 311.048 147.777 307.79 148.671C304.605 149.607 301.789 152.226 299.34 156.527C298.242 158.455 297.33 160.489 296.603 162.628C295.992 164.735 295.356 167.319 294.694 170.379L315.606 182.285L309.527 192.963L291.395 182.641C290.868 183.912 290.436 184.844 290.098 185.437C288.282 188.626 285.837 191.456 282.76 193.927C279.801 196.366 276.342 198.128 272.386 199.214L311.763 221.633Z" fill="#FFF75E" fill-opacity="0.25"/>
<path d="M99.4204 540.572L95.7451 554.429L35.7399 538.514L35.3807 528.884C40.0549 526.239 43.7503 523.291 46.4668 520.038C49.2053 516.704 51.3183 512.232 52.8059 506.623C52.959 506.046 53.1281 505.075 53.3132 503.712L39.58 500.069L42.7303 488.192L52.9992 490.916C52.8372 484.869 53.3578 479.578 54.561 475.042C56.0486 469.433 58.5244 464.925 61.9883 461.518C65.5566 458.05 69.8109 455.824 74.7512 454.839C79.6915 453.853 85.0073 454.116 90.6985 455.625C99.8539 458.053 106.145 462.459 109.573 468.842C113.105 475.164 113.945 482.317 112.092 490.301L96.1317 486.067C97.0993 482.086 96.8886 478.72 95.4997 475.968C94.1327 473.133 91.3459 471.158 87.1394 470.043C83.2628 469.014 79.8634 469.349 76.9414 471.046C74.1019 472.764 72.0477 476.016 70.7788 480.8C70.21 482.944 69.8474 485.144 69.6911 487.397C69.639 489.591 69.6838 492.251 69.8254 495.379L93.0852 501.548L89.935 513.425L69.7683 508.076C69.5832 509.44 69.4032 510.451 69.2282 511.111C68.2875 514.658 66.6457 518.019 64.3028 521.194C62.0643 524.308 59.1709 526.895 55.6227 528.956L99.4204 540.572Z" fill="#FFF75E" fill-opacity="0.25"/>
<path d="M328.242 530.89L332.308 544.637L272.777 562.244L267.463 554.205C270.08 549.515 271.704 545.075 272.333 540.885C272.938 536.612 272.418 531.694 270.772 526.129C270.603 525.557 270.242 524.64 269.692 523.379L256.067 527.408L252.582 515.625L262.77 512.612C259.487 507.531 257.181 502.741 255.85 498.24C254.204 492.676 253.975 487.538 255.162 482.826C256.407 478.009 258.883 473.895 262.591 470.485C266.298 467.075 270.975 464.535 276.622 462.865C285.705 460.178 293.37 460.67 299.616 464.34C305.92 467.903 310.357 473.577 312.926 481.36L297.092 486.043C295.848 482.139 293.918 479.373 291.301 477.745C288.659 476.034 285.252 475.796 281.078 477.03C277.232 478.168 274.502 480.221 272.889 483.19C271.357 486.135 271.293 489.98 272.697 494.726C273.326 496.854 274.16 498.921 275.198 500.927C276.294 502.828 277.716 505.077 279.463 507.675L302.539 500.85L306.024 512.633L286.017 518.551C286.567 519.812 286.94 520.769 287.133 521.424C288.174 524.943 288.519 528.667 288.169 532.597C287.876 536.421 286.75 540.136 284.79 543.741L328.242 530.89Z" fill="#FFF75E" fill-opacity="0.25"/>
<path d="M218.242 100.89L222.308 114.637L162.777 132.244L157.463 124.205C160.08 119.515 161.704 115.075 162.333 110.885C162.938 106.612 162.418 101.694 160.772 96.1294C160.603 95.5566 160.242 94.6398 159.692 93.3789L146.067 97.4084L142.582 85.625L152.77 82.6119C149.487 77.5315 147.181 72.741 145.85 68.2404C144.204 62.676 143.975 57.538 145.162 52.8266C146.407 48.009 148.883 43.8952 152.591 40.4849C156.298 37.0747 160.975 34.5346 166.622 32.8647C175.705 30.1783 183.37 30.67 189.616 34.3398C195.92 37.9035 200.357 43.5769 202.926 51.3599L187.092 56.0429C185.848 52.1393 183.918 49.3732 181.301 47.7446C178.659 46.0342 175.252 45.7962 171.078 47.0304C167.232 48.1679 164.502 50.2211 162.889 53.1899C161.357 56.1346 161.293 59.98 162.697 64.7261C163.326 66.8537 164.16 68.9207 165.198 70.9273C166.294 72.8278 167.716 75.077 169.463 77.6748L192.539 70.85L196.024 82.6334L176.017 88.5507C176.567 89.8116 176.94 90.7693 177.133 91.424C178.174 94.9426 178.519 98.667 178.169 102.597C177.876 106.421 176.75 110.136 174.79 113.741L218.242 100.89Z" fill="#FFF75E" fill-opacity="0.25"/>
</g>
<rect x="45" y="278" width="262" height="50" rx="10" fill="#FFCE00"/>
<rect x="49" y="273" width="262" height="50" rx="10" fill="#FFF75E"/>
<path d="M116.912 295.36C116.912 296.107 116.732 296.807 116.372 297.46C116.025 298.113 115.472 298.64 114.712 299.04C113.965 299.44 113.018 299.64 111.872 299.64H109.532V305H106.732V291.04H111.872C112.952 291.04 113.872 291.227 114.632 291.6C115.392 291.973 115.958 292.487 116.332 293.14C116.718 293.793 116.912 294.533 116.912 295.36ZM111.752 297.38C112.525 297.38 113.098 297.207 113.472 296.86C113.845 296.5 114.032 296 114.032 295.36C114.032 294 113.272 293.32 111.752 293.32H109.532V297.38H111.752ZM123.82 305.18C122.753 305.18 121.793 304.947 120.94 304.48C120.086 304 119.413 303.327 118.92 302.46C118.44 301.593 118.2 300.593 118.2 299.46C118.2 298.327 118.446 297.327 118.94 296.46C119.446 295.593 120.133 294.927 121 294.46C121.866 293.98 122.833 293.74 123.9 293.74C124.966 293.74 125.933 293.98 126.8 294.46C127.666 294.927 128.346 295.593 128.84 296.46C129.346 297.327 129.6 298.327 129.6 299.46C129.6 300.593 129.34 301.593 128.82 302.46C128.313 303.327 127.62 304 126.74 304.48C125.873 304.947 124.9 305.18 123.82 305.18ZM123.82 302.74C124.326 302.74 124.8 302.62 125.24 302.38C125.693 302.127 126.053 301.753 126.32 301.26C126.586 300.767 126.72 300.167 126.72 299.46C126.72 298.407 126.44 297.6 125.88 297.04C125.333 296.467 124.66 296.18 123.86 296.18C123.06 296.18 122.386 296.467 121.84 297.04C121.306 297.6 121.04 298.407 121.04 299.46C121.04 300.513 121.3 301.327 121.82 301.9C122.353 302.46 123.02 302.74 123.82 302.74ZM142.113 293.92V305H139.293V303.6C138.933 304.08 138.46 304.46 137.873 304.74C137.3 305.007 136.673 305.14 135.993 305.14C135.127 305.14 134.36 304.96 133.693 304.6C133.027 304.227 132.5 303.687 132.113 302.98C131.74 302.26 131.553 301.407 131.553 300.42V293.92H134.353V300.02C134.353 300.9 134.573 301.58 135.013 302.06C135.453 302.527 136.053 302.76 136.813 302.76C137.587 302.76 138.193 302.527 138.633 302.06C139.073 301.58 139.293 300.9 139.293 300.02V293.92H142.113ZM151.016 293.76C152.336 293.76 153.403 294.18 154.216 295.02C155.029 295.847 155.436 297.007 155.436 298.5V305H152.636V298.88C152.636 298 152.416 297.327 151.976 296.86C151.536 296.38 150.936 296.14 150.176 296.14C149.403 296.14 148.789 296.38 148.336 296.86C147.896 297.327 147.676 298 147.676 298.88V305H144.876V293.92H147.676V295.3C148.049 294.82 148.523 294.447 149.096 294.18C149.683 293.9 150.323 293.76 151.016 293.76ZM157.379 299.42C157.379 298.3 157.599 297.307 158.039 296.44C158.492 295.573 159.105 294.907 159.879 294.44C160.652 293.973 161.512 293.74 162.459 293.74C163.179 293.74 163.865 293.9 164.519 294.22C165.172 294.527 165.692 294.94 166.079 295.46V290.2H168.919V305H166.079V303.36C165.732 303.907 165.245 304.347 164.619 304.68C163.992 305.013 163.265 305.18 162.439 305.18C161.505 305.18 160.652 304.94 159.879 304.46C159.105 303.98 158.492 303.307 158.039 302.44C157.599 301.56 157.379 300.553 157.379 299.42ZM166.099 299.46C166.099 298.78 165.965 298.2 165.699 297.72C165.432 297.227 165.072 296.853 164.619 296.6C164.165 296.333 163.679 296.2 163.159 296.2C162.639 296.2 162.159 296.327 161.719 296.58C161.279 296.833 160.919 297.207 160.639 297.7C160.372 298.18 160.239 298.753 160.239 299.42C160.239 300.087 160.372 300.673 160.639 301.18C160.919 301.673 161.279 302.053 161.719 302.32C162.172 302.587 162.652 302.72 163.159 302.72C163.679 302.72 164.165 302.593 164.619 302.34C165.072 302.073 165.432 301.7 165.699 301.22C165.965 300.727 166.099 300.14 166.099 299.46ZM175.893 305.18C174.987 305.18 174.173 305.02 173.453 304.7C172.733 304.367 172.16 303.92 171.733 303.36C171.32 302.8 171.093 302.18 171.053 301.5H173.873C173.927 301.927 174.133 302.28 174.493 302.56C174.867 302.84 175.327 302.98 175.873 302.98C176.407 302.98 176.82 302.873 177.113 302.66C177.42 302.447 177.573 302.173 177.573 301.84C177.573 301.48 177.387 301.213 177.013 301.04C176.653 300.853 176.073 300.653 175.273 300.44C174.447 300.24 173.767 300.033 173.233 299.82C172.713 299.607 172.26 299.28 171.873 298.84C171.5 298.4 171.313 297.807 171.313 297.06C171.313 296.447 171.487 295.887 171.833 295.38C172.193 294.873 172.7 294.473 173.353 294.18C174.02 293.887 174.8 293.74 175.693 293.74C177.013 293.74 178.067 294.073 178.853 294.74C179.64 295.393 180.073 296.28 180.153 297.4H177.473C177.433 296.96 177.247 296.613 176.913 296.36C176.593 296.093 176.16 295.96 175.613 295.96C175.107 295.96 174.713 296.053 174.433 296.24C174.167 296.427 174.033 296.687 174.033 297.02C174.033 297.393 174.22 297.68 174.593 297.88C174.967 298.067 175.547 298.26 176.333 298.46C177.133 298.66 177.793 298.867 178.313 299.08C178.833 299.293 179.28 299.627 179.653 300.08C180.04 300.52 180.24 301.107 180.253 301.84C180.253 302.48 180.073 303.053 179.713 303.56C179.367 304.067 178.86 304.467 178.193 304.76C177.54 305.04 176.773 305.18 175.893 305.18ZM181.832 299.44C181.832 298.333 182.059 297.353 182.512 296.5C182.979 295.633 183.605 294.96 184.392 294.48C185.179 294 186.045 293.76 186.992 293.76C187.779 293.76 188.472 293.913 189.072 294.22C189.685 294.513 190.179 294.893 190.552 295.36V293.92H193.372V310.28H190.552V303.48C190.179 303.96 189.679 304.36 189.052 304.68C188.425 305 187.719 305.16 186.932 305.16C185.999 305.16 185.139 304.92 184.352 304.44C183.579 303.947 182.965 303.267 182.512 302.4C182.059 301.533 181.832 300.547 181.832 299.44ZM190.552 299.46C190.552 298.78 190.412 298.193 190.132 297.7C189.852 297.207 189.485 296.833 189.032 296.58C188.592 296.327 188.119 296.2 187.612 296.2C187.119 296.2 186.645 296.327 186.192 296.58C185.752 296.833 185.392 297.207 185.112 297.7C184.832 298.18 184.692 298.76 184.692 299.44C184.692 300.12 184.832 300.713 185.112 301.22C185.392 301.713 185.752 302.087 186.192 302.34C186.645 302.593 187.119 302.72 187.612 302.72C188.119 302.72 188.592 302.593 189.032 302.34C189.485 302.087 189.852 301.713 190.132 301.22C190.412 300.727 190.552 300.14 190.552 299.46ZM206.567 293.92V305H203.747V303.6C203.387 304.08 202.913 304.46 202.327 304.74C201.753 305.007 201.127 305.14 200.447 305.14C199.58 305.14 198.813 304.96 198.147 304.6C197.48 304.227 196.953 303.687 196.567 302.98C196.193 302.26 196.007 301.407 196.007 300.42V293.92H198.807V300.02C198.807 300.9 199.027 301.58 199.467 302.06C199.907 302.527 200.507 302.76 201.267 302.76C202.04 302.76 202.647 302.527 203.087 302.06C203.527 301.58 203.747 300.9 203.747 300.02V293.92H206.567ZM219.629 299.22C219.629 299.62 219.603 299.98 219.549 300.3H211.449C211.516 301.1 211.796 301.727 212.289 302.18C212.783 302.633 213.389 302.86 214.109 302.86C215.149 302.86 215.889 302.413 216.329 301.52H219.349C219.029 302.587 218.416 303.467 217.509 304.16C216.603 304.84 215.489 305.18 214.169 305.18C213.103 305.18 212.143 304.947 211.289 304.48C210.449 304 209.789 303.327 209.309 302.46C208.843 301.593 208.609 300.593 208.609 299.46C208.609 298.313 208.843 297.307 209.309 296.44C209.776 295.573 210.429 294.907 211.269 294.44C212.109 293.973 213.076 293.74 214.169 293.74C215.223 293.74 216.163 293.967 216.989 294.42C217.829 294.873 218.476 295.52 218.929 296.36C219.396 297.187 219.629 298.14 219.629 299.22ZM216.729 298.42C216.716 297.7 216.456 297.127 215.949 296.7C215.443 296.26 214.823 296.04 214.089 296.04C213.396 296.04 212.809 296.253 212.329 296.68C211.863 297.093 211.576 297.673 211.469 298.42H216.729ZM231.973 299.22C231.973 299.62 231.946 299.98 231.893 300.3H223.793C223.86 301.1 224.14 301.727 224.633 302.18C225.126 302.633 225.733 302.86 226.453 302.86C227.493 302.86 228.233 302.413 228.673 301.52H231.693C231.373 302.587 230.76 303.467 229.853 304.16C228.946 304.84 227.833 305.18 226.513 305.18C225.446 305.18 224.486 304.947 223.633 304.48C222.793 304 222.133 303.327 221.653 302.46C221.186 301.593 220.953 300.593 220.953 299.46C220.953 298.313 221.186 297.307 221.653 296.44C222.12 295.573 222.773 294.907 223.613 294.44C224.453 293.973 225.42 293.74 226.513 293.74C227.566 293.74 228.506 293.967 229.333 294.42C230.173 294.873 230.82 295.52 231.273 296.36C231.74 297.187 231.973 298.14 231.973 299.22ZM229.073 298.42C229.06 297.7 228.8 297.127 228.293 296.7C227.786 296.26 227.166 296.04 226.433 296.04C225.74 296.04 225.153 296.253 224.673 296.68C224.206 297.093 223.92 297.673 223.813 298.42H229.073ZM236.577 302.7H241.517V305H233.397V302.74L238.237 296.22H233.417V293.92H241.457V296.18L236.577 302.7ZM253.985 299.22C253.985 299.62 253.958 299.98 253.905 300.3H245.805C245.871 301.1 246.151 301.727 246.645 302.18C247.138 302.633 247.745 302.86 248.465 302.86C249.505 302.86 250.245 302.413 250.685 301.52H253.705C253.385 302.587 252.771 303.467 251.865 304.16C250.958 304.84 249.845 305.18 248.525 305.18C247.458 305.18 246.498 304.947 245.645 304.48C244.805 304 244.145 303.327 243.665 302.46C243.198 301.593 242.965 300.593 242.965 299.46C242.965 298.313 243.198 297.307 243.665 296.44C244.131 295.573 244.785 294.907 245.625 294.44C246.465 293.973 247.431 293.74 248.525 293.74C249.578 293.74 250.518 293.967 251.345 294.42C252.185 294.873 252.831 295.52 253.285 296.36C253.751 297.187 253.985 298.14 253.985 299.22ZM251.085 298.42C251.071 297.7 250.811 297.127 250.305 296.7C249.798 296.26 249.178 296.04 248.445 296.04C247.751 296.04 247.165 296.253 246.685 296.68C246.218 297.093 245.931 297.673 245.825 298.42H251.085Z" fill="black"/>
</svg>
